<?xml version="1.0" encoding="utf-8"?>
<!-- Generator: Adobe Illustrator 25.0.1, SVG Export Plug-In . SVG Version: 6.00 Build 0)  -->
<svg version="1.1" id="Capa_1" xmlns="http://www.w3.org/2000/svg" xmlns:xlink="http://www.w3.org/1999/xlink" x="0px" y="0px"
	 viewBox="0 0 1000 1000" style="enable-background:new 0 0 1000 1000;" xml:space="preserve">
<style type="text/css">
	.st0{fill:#110E0B;}
</style>
<g>
	<g>
		<g>
			<g>
				<path class="st0" d="M251.37,556.41h-40.8V408.44h40.8v70.49c12.6-9.66,24.37-20.38,35.3-32.16
					c10.93-11.78,20.33-24.59,28.21-38.43h27.85c-7.26,12.4-15.59,23.98-24.97,34.73c-9.39,10.76-19.59,20.72-30.62,29.9
					l59.09,83.44h-42.54l-44.49-62.89c-1.3,0.89-2.59,1.75-3.85,2.57c-1.27,0.82-2.59,1.64-3.96,2.47V556.41z"/>
				<path class="st0" d="M400.89,408.44c-1.85,5.55-3.46,11.29-4.83,17.21c-1.37,5.93-2.5,11.85-3.39,17.78
					c-0.89,5.93-1.56,11.77-2,17.52c-0.45,5.75-0.67,11.2-0.67,16.34c0,3.77,0.02,8,0.05,12.69c0.03,4.69,0.31,9.47,0.82,14.33
					c0.51,4.87,1.35,9.61,2.52,14.23c1.16,4.62,2.89,8.75,5.19,12.38c2.29,3.63,5.24,6.54,8.84,8.73c3.6,2.19,8.07,3.29,13.41,3.29
					c4.73,0,8.79-0.8,12.18-2.41c3.39-1.61,6.27-3.79,8.63-6.53c2.36-2.74,4.25-5.89,5.65-9.45c1.4-3.56,2.5-7.3,3.29-11.2
					c0.79-3.9,1.3-7.86,1.54-11.87c0.24-4.01,0.36-7.83,0.36-11.46v-81.59h40.8v75.22c0,10.76-1.71,20.76-5.14,30.01
					c-3.43,9.25-8.26,17.28-14.49,24.1c-6.23,6.82-13.77,12.16-22.61,16.03c-8.84,3.87-18.63,5.81-29.39,5.81
					c-7.4,0-14.28-1.04-20.65-3.13s-12.21-4.97-17.52-8.63c-5.31-3.66-10.04-8.02-14.18-13.05c-4.15-5.04-7.6-10.53-10.38-16.49
					s-4.88-12.24-6.32-18.86c-1.44-6.61-2.09-13.31-1.95-20.09v-2.05c0.07-5.48,0.62-11.15,1.64-17.01
					c1.03-5.86,2.41-11.73,4.16-17.62c1.75-5.89,3.85-11.73,6.32-17.52s5.21-11.36,8.22-16.7H400.89z"/>
				<path class="st0" d="M543.93,556.41h-18.91V408.44h26.51l89.92,101.63V408.44h18.8v147.97h-26.51l-89.81-101.53V556.41z"/>
				<path class="st0" d="M762.19,556.41H721.4V427.35h-40.28v-18.91h121.36v18.91h-40.28V556.41z"/>
			</g>
		</g>
		<g>
			<path class="st0" d="M959.55,485.43v1.95c-0.16,5.75-0.75,11.71-1.82,17.89c-1.04,6.15-2.54,12.33-4.47,18.5
				c-1.9,6.15-4.2,12.25-6.87,18.29c-1.28,2.86-2.62,5.67-4.04,8.42c-0.05,0.13-0.11,0.29-0.21,0.43
				c-22.97,47.41-60.11,60.99-94.68,54.09c-29.89-5.96-52.43-27.54-53.8-28.9c1.58,0.99,27.11,16.98,56.28,18.61
				c20.43,1.15,39.71-5.27,49.39-16.68c0.59-0.7,1.23-1.66,1.93-2.81c1.6-3.02,3.1-6.2,4.49-9.57c1.95-4.79,3.72-9.76,5.29-14.97
				c1.58-5.19,2.91-10.53,4.06-16.02c1.12-5.48,2.06-10.94,2.81-16.34c0.75-5.43,1.34-10.75,1.71-15.99
				c0.37-5.24,0.56-10.21,0.56-14.95c0-2.54,0-5.35-0.03-8.37c-0.45-14.87-2.14-27.89-4.28-35.46
				c-4.6-16.26-16.76-21.58-27.38-21.74c-4.39,0.11-8.16,0.91-11.31,2.43c-3.4,1.6-6.28,3.77-8.64,6.47
				c-2.38,2.7-4.25,5.83-5.64,9.39c-1.42,3.58-2.51,7.33-3.32,11.26c-0.78,3.96-1.28,7.91-1.52,11.93
				c-0.24,4.01-0.37,7.78-0.37,11.36v28.66H902v16.95H857.7v35.96h-40.78v-75.22c0-10.75,1.71-20.75,5.13-30
				c3.42-9.25,8.26-17.27,14.55-24.09c6.26-6.82,13.8-12.17,22.59-16.04c8.8-3.88,18.61-5.8,29.44-5.8c7.33,0,14.2,1.04,20.62,3.13
				c6.39,2.09,12.25,4.97,17.51,8.64c5.27,3.66,9.97,8.02,14.12,13.05c3.32,4.04,6.2,8.37,8.64,13c0.03,0.03,0.05,0.05,0.05,0.11
				c0.59,1.12,1.15,2.25,1.68,3.4c2.59,5.59,4.63,11.44,6.04,17.65c0.05,0.16,0.08,0.29,0.11,0.45c0.08,0.27,0.13,0.53,0.19,0.8
				C959.01,471.93,959.68,478.64,959.55,485.43z"/>
		</g>
		<path class="st0" d="M143.03,408.5h41.1v75.78c0,10.83-1.74,20.91-5.19,30.22c-3.45,9.31-8.32,17.41-14.6,24.28
			c-6.28,6.87-13.85,12.25-22.76,16.15c-8.9,3.88-18.77,5.83-29.6,5.83c-7.46,0-14.39-1.04-20.8-3.16c-6.42-2.09-12.3-5-17.65-8.69
			c-5.35-3.69-10.13-8.08-14.31-13.16c-4.17-5.05-7.65-10.59-10.46-16.61c-2.78-5.99-4.89-12.33-6.36-18.99
			c-1.44-6.66-2.09-13.4-1.95-20.24v-2.06c0.05-5.54,0.61-11.23,1.66-17.14c1.02-5.91,2.43-11.82,4.17-17.76
			c1.76-5.94,3.9-11.82,6.39-17.65c2.46-5.83,8.77-16.82,8.77-16.82c25.75-43.43,68.64-52.84,102.5-43.16
			c30.43,8.66,51.61,33.37,51.61,33.37s-24.76-20.72-55.06-20.7c-26.5,0.03-61.21,10.35-73.91,46.29c-0.13,0.51-0.27,1.04-0.37,1.55
			c-1.39,5.96-2.54,11.93-3.42,17.89c-0.91,5.96-1.58,11.85-2.01,17.65c-0.45,5.8-0.7,11.28-0.7,16.47c0,3.8,0.03,8.05,0.05,12.78
			c0.05,4.73,0.32,9.55,0.83,14.44c0.53,4.89,1.36,9.68,2.54,14.33c1.18,4.65,2.91,8.82,5.24,12.46c2.3,3.66,5.27,6.6,8.88,8.8
			c3.64,2.22,8.13,3.32,13.53,3.32c4.76,0,8.85-0.8,12.25-2.43c3.42-1.6,6.31-3.8,8.69-6.58c2.38-2.75,4.28-5.91,5.7-9.52
			c1.42-3.58,2.54-7.35,3.32-11.28c0.8-3.93,1.31-7.92,1.55-11.95s0.37-7.89,0.37-11.53V408.5z"/>
	</g>
</g>
</svg>
