<svg width="350" height="350" viewBox="0 0 350 350" fill="none" xmlns="http://www.w3.org/2000/svg">
<path fill-rule="evenodd" clip-rule="evenodd" d="M277.083 320.833C293.169 320.833 306.25 307.752 306.25 291.667V168.953L301.641 173.523L277.094 198.022L277.113 291.667H72.9167V145.833H80.5V145.764H131.254V116.667H131.25V102.083C131.25 77.9625 150.879 58.3333 175 58.3333C181.252 58.3333 187.202 59.6521 192.587 62.026L214.207 40.6281C202.878 33.375 189.421 29.1667 175 29.1667C134.794 29.1667 102.083 61.8771 102.083 102.083V116.667H58.3333C54.4656 116.667 50.7563 118.203 48.0214 120.938C45.2865 123.673 43.75 127.382 43.75 131.25V291.667C43.75 307.752 56.8312 320.833 72.9167 320.833H277.083ZM166.439 261.694L102.083 261.913V197.309L242.579 58.1549C253.517 47.2319 272.752 47.1736 283.777 58.1986L306.906 81.3278C312.419 86.8403 315.452 94.1611 315.452 101.949C315.452 109.736 312.419 117.057 306.906 122.569L166.439 261.694ZM286.329 101.905L263.156 78.8194L239.91 101.861L263.04 124.976L286.329 101.905ZM219.187 122.365L131.25 209.472V232.644L154.394 232.572L242.317 145.494L219.187 122.365Z" fill="#F9B437"/>
</svg>
